<svg width="688" height="200" viewBox="0 0 688 200" fill="none" xmlns="http://www.w3.org/2000/svg">
<path d="M108.213 96.8043C130.696 96.8043 148.922 78.5781 148.922 56.0945C148.922 33.6112 130.696 15.3848 108.213 15.3848C85.7291 15.3848 67.5029 33.6112 67.5029 56.0945C67.5029 78.5781 85.7291 96.8043 108.213 96.8043Z" fill="url(#paint0_linear_2172_87)"/>
<path d="M109.205 116.706L163.729 171.219L214.425 120.387L215.518 119.291C215.518 119.291 215.525 119.28 215.528 119.274C216.092 118.503 216.422 117.603 216.422 116.649C216.422 115.613 216.041 114.645 215.392 113.844C215.046 113.504 214.693 113.178 214.343 112.862C184.856 85.7249 139.131 86.5367 110.614 115.291L109.205 116.706Z" fill="white"/>
<path d="M109.213 116.703L53.7692 172.154L2.03396 120.418L0.920205 119.311L0.910021 119.294C0.336164 118.517 0 117.606 0 116.642C0 115.593 0.387098 114.618 1.04924 113.807C1.40238 113.464 1.75892 113.135 2.11886 112.815C32.1529 85.4058 78.7303 86.2279 107.779 115.27L109.213 116.703Z" fill="#F2F8FF"/>
<path d="M163.73 171.22L162.646 172.303C132.531 202.419 83.7023 202.419 53.5869 172.303L109.214 116.703L163.73 171.22Z" fill="#F2F8FF"/>
<path d="M324.028 124.384C315.92 124.384 309.12 123.207 303.628 120.854C298.223 118.413 294.082 115.274 291.205 111.438C288.415 107.515 286.933 103.418 286.759 99.1459C286.759 98.3612 287.02 97.7074 287.543 97.1843C288.066 96.6612 288.72 96.3997 289.505 96.3997H301.143C302.277 96.3997 303.105 96.6612 303.628 97.1843C304.238 97.6202 304.761 98.1869 305.197 98.8843C305.72 100.541 306.723 102.197 308.205 103.854C309.687 105.423 311.692 106.73 314.22 107.777C316.836 108.823 320.105 109.346 324.028 109.346C330.305 109.346 334.969 108.3 338.02 106.207C341.159 104.115 342.728 101.282 342.728 97.7074C342.728 95.1792 341.9 93.1741 340.243 91.692C338.587 90.1228 336.015 88.7279 332.528 87.5074C329.128 86.1997 324.595 84.8484 318.928 83.4535C312.39 81.8843 306.897 80.01 302.451 77.8305C298.092 75.5638 294.779 72.7305 292.513 69.3305C290.333 65.9305 289.243 61.6151 289.243 56.3843C289.243 51.3279 290.595 46.8382 293.297 42.9151C296.087 38.992 300.01 35.8971 305.066 33.6305C310.21 31.3638 316.313 30.2305 323.374 30.2305C329.041 30.2305 334.054 31.0151 338.413 32.5843C342.772 34.0664 346.39 36.0715 349.266 38.5997C352.143 41.0407 354.323 43.6997 355.805 46.5766C357.374 49.3664 358.202 52.1125 358.29 54.8151C358.29 55.5125 358.028 56.1664 357.505 56.7766C357.069 57.2997 356.415 57.5612 355.543 57.5612H343.382C342.684 57.5612 341.987 57.3869 341.29 57.0382C340.592 56.6894 340.025 56.0356 339.59 55.0766C339.066 52.3741 337.366 50.0638 334.49 48.1459C331.613 46.2279 327.908 45.2689 323.374 45.2689C318.666 45.2689 314.874 46.1407 311.997 47.8843C309.12 49.6279 307.682 52.3305 307.682 55.992C307.682 58.433 308.379 60.4817 309.774 62.1382C311.256 63.7074 313.566 65.1023 316.705 66.3228C319.931 67.5433 324.159 68.851 329.39 70.2459C336.8 71.9023 342.859 73.8202 347.566 75.9997C352.274 78.1792 355.718 80.9689 357.897 84.3689C360.077 87.6817 361.166 91.91 361.166 97.0536C361.166 102.807 359.597 107.733 356.459 111.83C353.408 115.841 349.092 118.936 343.513 121.115C337.933 123.295 331.438 124.384 324.028 124.384ZM379.291 123.077C378.419 123.077 377.678 122.771 377.068 122.161C376.458 121.551 376.153 120.81 376.153 119.938V34.8074C376.153 33.8484 376.458 33.0638 377.068 32.4535C377.678 31.8433 378.419 31.5382 379.291 31.5382H411.199C420.004 31.5382 427.24 32.8894 432.906 35.592C438.66 38.2946 442.976 42.3048 445.853 47.6228C448.817 52.9407 450.342 59.4356 450.43 67.1074C450.604 70.9433 450.691 74.3433 450.691 77.3074C450.691 80.2715 450.604 83.6279 450.43 87.3766C450.255 95.4843 448.773 102.197 445.983 107.515C443.194 112.746 438.965 116.669 433.299 119.284C427.719 121.813 420.571 123.077 411.853 123.077H379.291ZM394.33 108.038H411.199C416.081 108.038 420.048 107.341 423.099 105.946C426.15 104.551 428.373 102.328 429.768 99.2766C431.25 96.1382 432.035 92.0407 432.122 86.9843C432.209 84.3689 432.253 82.1023 432.253 80.1843C432.34 78.1792 432.34 76.2177 432.253 74.2997C432.253 72.2946 432.209 70.0279 432.122 67.4997C431.948 60.351 430.16 55.0766 426.76 51.6766C423.36 48.2766 417.955 46.5766 410.545 46.5766H394.33V108.038ZM471.238 123.077C470.367 123.077 469.625 122.771 469.015 122.161C468.405 121.551 468.1 120.81 468.1 119.938V34.8074C468.1 33.8484 468.405 33.0638 469.015 32.4535C469.625 31.8433 470.367 31.5382 471.238 31.5382H527.995C528.954 31.5382 529.738 31.8433 530.349 32.4535C530.959 33.0638 531.261 33.8484 531.261 34.8074V43.9612C531.261 44.9202 530.959 45.7048 530.349 46.3151C529.738 46.8382 528.954 47.0997 527.995 47.0997H486.015V71.9459H525.379C526.338 71.9459 527.123 72.251 527.733 72.8612C528.343 73.4715 528.646 74.2561 528.646 75.2151V84.3689C528.646 85.2407 528.343 85.9818 527.733 86.592C527.123 87.2023 526.338 87.5074 525.379 87.5074H486.015V119.938C486.015 120.81 485.71 121.551 485.1 122.161C484.49 122.771 483.705 123.077 482.746 123.077H471.238Z" fill="url(#paint1_linear_2172_87)"/>
<path d="M298.851 184.616C298.475 184.616 298.174 184.503 297.949 184.278C297.723 184.052 297.61 183.751 297.61 183.375V146.426C297.61 146.012 297.723 145.693 297.949 145.467C298.174 145.242 298.475 145.129 298.851 145.129H310.867C314.853 145.129 317.974 145.712 320.231 146.878C322.487 148.043 324.086 149.774 325.026 152.067C326.004 154.324 326.511 157.088 326.549 160.36C326.586 162.052 326.605 163.556 326.605 164.873C326.605 166.151 326.586 167.637 326.549 169.329C326.473 172.789 325.966 175.647 325.026 177.903C324.086 180.16 322.506 181.852 320.287 182.98C318.068 184.071 315.022 184.616 311.149 184.616H298.851ZM301.164 181.231H310.867C313.875 181.231 316.245 180.837 317.974 180.047C319.742 179.22 321.002 177.922 321.754 176.155C322.544 174.349 322.958 171.98 322.995 169.047C323.032 167.919 323.051 166.941 323.051 166.114C323.051 165.248 323.051 164.402 323.051 163.575C323.051 162.748 323.032 161.77 322.995 160.642C322.92 156.505 321.961 153.459 320.118 151.503C318.275 149.51 315.098 148.514 310.585 148.514H301.164V181.231ZM346.222 185.18C343.514 185.18 341.24 184.616 339.396 183.488C337.591 182.36 336.2 180.818 335.222 178.862C334.282 176.907 333.774 174.725 333.699 172.319C333.662 171.755 333.643 170.965 333.643 169.949C333.643 168.934 333.662 168.144 333.699 167.58C333.774 165.136 334.282 162.955 335.222 161.037C336.2 159.081 337.591 157.539 339.396 156.411C341.24 155.283 343.514 154.719 346.222 154.719C348.93 154.719 351.186 155.283 352.991 156.411C354.834 157.539 356.226 159.081 357.166 161.037C358.144 162.955 358.67 165.136 358.745 167.58C358.783 168.144 358.802 168.934 358.802 169.949C358.802 170.965 358.783 171.755 358.745 172.319C358.67 174.725 358.144 176.907 357.166 178.862C356.226 180.818 354.834 182.36 352.991 183.488C351.186 184.616 348.93 185.18 346.222 185.18ZM346.222 181.908C348.855 181.908 350.999 181.062 352.653 179.37C354.308 177.678 355.191 175.233 355.304 172.037C355.342 171.473 355.361 170.777 355.361 169.949C355.361 169.122 355.342 168.426 355.304 167.862C355.191 164.628 354.308 162.184 352.653 160.529C350.999 158.837 348.855 157.99 346.222 157.99C343.59 157.99 341.446 158.837 339.791 160.529C338.137 162.184 337.253 164.628 337.14 167.862C337.103 168.426 337.084 169.122 337.084 169.949C337.084 170.777 337.103 171.473 337.14 172.037C337.253 175.233 338.137 177.678 339.791 179.37C341.446 181.062 343.59 181.908 346.222 181.908ZM377.621 185.18C374.989 185.18 372.751 184.672 370.908 183.657C369.066 182.604 367.655 181.1 366.678 179.144C365.738 177.189 365.23 174.876 365.154 172.206C365.117 171.642 365.098 170.889 365.098 169.949C365.098 169.009 365.117 168.257 365.154 167.693C365.23 164.985 365.738 162.673 366.678 160.755C367.655 158.799 369.066 157.314 370.908 156.298C372.751 155.245 374.989 154.719 377.621 154.719C379.614 154.719 381.326 155.001 382.754 155.565C384.221 156.091 385.425 156.806 386.365 157.708C387.305 158.574 388.02 159.532 388.508 160.585C388.998 161.638 389.261 162.673 389.298 163.688C389.336 164.064 389.223 164.365 388.96 164.59C388.697 164.816 388.395 164.929 388.057 164.929H387.267C386.891 164.929 386.609 164.854 386.421 164.703C386.271 164.515 386.102 164.196 385.913 163.744C385.124 161.601 384.033 160.115 382.642 159.288C381.288 158.423 379.614 157.99 377.621 157.99C375.064 157.99 372.939 158.78 371.247 160.36C369.592 161.902 368.708 164.44 368.595 167.975C368.521 169.291 368.521 170.607 368.595 171.924C368.708 175.459 369.592 178.016 371.247 179.596C372.939 181.138 375.064 181.908 377.621 181.908C379.614 181.908 381.288 181.495 382.642 180.667C384.033 179.802 385.124 178.298 385.913 176.155C386.102 175.703 386.271 175.402 386.421 175.252C386.609 175.064 386.891 174.97 387.267 174.97H388.057C388.395 174.97 388.697 175.083 388.96 175.308C389.223 175.534 389.336 175.835 389.298 176.211C389.261 177.038 389.091 177.866 388.79 178.693C388.49 179.52 388.02 180.329 387.38 181.119C386.779 181.908 386.026 182.604 385.124 183.206C384.221 183.807 383.131 184.278 381.852 184.616C380.611 184.992 379.201 185.18 377.621 185.18ZM406.06 185.18C404.104 185.18 402.412 184.917 400.983 184.39C399.591 183.864 398.444 183.243 397.542 182.529C396.639 181.777 395.962 181.043 395.511 180.329C395.097 179.615 394.871 179.069 394.834 178.693C394.797 178.279 394.928 177.979 395.229 177.79C395.53 177.565 395.812 177.452 396.075 177.452H396.921C397.147 177.452 397.335 177.489 397.485 177.565C397.673 177.64 397.899 177.847 398.162 178.185C398.651 178.825 399.215 179.445 399.854 180.047C400.494 180.611 401.302 181.062 402.28 181.401C403.295 181.739 404.555 181.908 406.06 181.908C408.316 181.908 410.178 181.476 411.644 180.611C413.111 179.746 413.844 178.467 413.844 176.775C413.844 175.722 413.543 174.876 412.942 174.237C412.378 173.597 411.4 173.033 410.008 172.544C408.617 172.056 406.737 171.548 404.367 171.021C401.998 170.457 400.174 169.78 398.895 168.99C397.654 168.201 396.808 167.298 396.357 166.283C395.906 165.23 395.68 164.102 395.68 162.898C395.68 161.582 396.056 160.303 396.808 159.062C397.561 157.784 398.67 156.749 400.137 155.96C401.641 155.133 403.521 154.719 405.778 154.719C407.62 154.719 409.181 154.963 410.46 155.452C411.776 155.941 412.848 156.543 413.675 157.257C414.502 157.934 415.104 158.611 415.48 159.288C415.894 159.965 416.12 160.51 416.157 160.924C416.194 161.3 416.082 161.601 415.819 161.826C415.555 162.052 415.254 162.165 414.916 162.165H414.07C413.769 162.165 413.525 162.108 413.337 161.996C413.148 161.845 412.979 161.657 412.829 161.431C412.453 160.83 412.002 160.266 411.475 159.739C410.948 159.213 410.234 158.799 409.331 158.498C408.466 158.16 407.282 157.99 405.778 157.99C403.521 157.99 401.848 158.461 400.757 159.401C399.666 160.303 399.121 161.469 399.121 162.898C399.121 163.725 399.347 164.459 399.798 165.098C400.249 165.7 401.095 166.264 402.336 166.79C403.578 167.279 405.383 167.806 407.752 168.37C410.159 168.897 412.058 169.555 413.449 170.344C414.841 171.097 415.819 171.999 416.383 173.052C416.984 174.105 417.285 175.346 417.285 176.775C417.285 178.279 416.853 179.671 415.988 180.949C415.161 182.228 413.901 183.262 412.208 184.052C410.553 184.804 408.504 185.18 406.06 185.18Z" fill="url(#paint2_linear_2172_87)"/>
<defs>
<linearGradient id="paint0_linear_2172_87" x1="71.7947" y1="79.4873" x2="143.59" y2="38.4617" gradientUnits="userSpaceOnUse">
<stop stop-color="#F2F8FF"/>
<stop offset="1" stop-color="white"/>
</linearGradient>
<linearGradient id="paint1_linear_2172_87" x1="684.615" y1="-61.5388" x2="174.359" y2="182.051" gradientUnits="userSpaceOnUse">
<stop offset="0.172476" stop-color="#F2F8FF"/>
<stop offset="1" stop-color="white"/>
</linearGradient>
<linearGradient id="paint2_linear_2172_87" x1="877.164" y1="106.667" x2="621.595" y2="515.713" gradientUnits="userSpaceOnUse">
<stop offset="0.172476" stop-color="white" stop-opacity="0.65"/>
<stop offset="1" stop-color="white"/>
</linearGradient>
</defs>
</svg>
