<svg width="134" height="39" viewBox="0 0 134 39" fill="none" xmlns="http://www.w3.org/2000/svg">
<path d="M21.1015 18.8768C25.4858 18.8768 29.0399 15.3227 29.0399 10.9384C29.0399 6.55415 25.4858 3 21.1015 3C16.7172 3 13.1631 6.55415 13.1631 10.9384C13.1631 15.3227 16.7172 18.8768 21.1015 18.8768Z" fill="url(#paint0_linear_1441_1517)"/>
<path d="M21.295 22.7577L31.9271 33.3877L41.8128 23.4755L42.026 23.2616C42.026 23.2616 42.0274 23.2596 42.028 23.2583C42.1379 23.108 42.2022 22.9325 42.2022 22.7464C42.2022 22.5445 42.128 22.3558 42.0015 22.1995C41.934 22.1333 41.8651 22.0697 41.7969 22.0081C36.0469 16.7163 27.1305 16.8746 21.5698 22.4816L21.295 22.7584V22.7577Z" fill="#0C1D37" fill-opacity="0.8"/>
<path d="M21.2965 22.757L10.485 33.5698L0.396623 23.4814L0.17944 23.2655C0.17944 23.2655 0.178116 23.2635 0.177454 23.2622C0.065552 23.1106 0 22.9331 0 22.7451C0 22.5405 0.0754841 22.3504 0.204602 22.1922C0.273465 22.1253 0.342989 22.0611 0.413177 21.9988C6.26982 16.654 15.3524 16.8143 21.017 22.4776L21.2965 22.757Z" fill="#0C1D37"/>
<path d="M31.9274 33.3877L31.7161 33.5989C25.8436 39.4715 16.322 39.4715 10.4495 33.5989L21.2967 22.757L31.9274 33.3877Z" fill="#0C1D37"/>
<path d="M63.1855 24.255C61.6045 24.255 60.2785 24.0255 59.2075 23.5665C58.1535 23.0905 57.346 22.4785 56.785 21.7305C56.241 20.9655 55.952 20.1665 55.918 19.3335C55.918 19.1805 55.969 19.053 56.071 18.951C56.173 18.849 56.3005 18.798 56.4535 18.798H58.723C58.944 18.798 59.1055 18.849 59.2075 18.951C59.3265 19.036 59.4285 19.1465 59.5135 19.2825C59.6155 19.6055 59.811 19.9285 60.1 20.2515C60.389 20.5575 60.78 20.8125 61.273 21.0165C61.783 21.2205 62.4205 21.3225 63.1855 21.3225C64.4095 21.3225 65.319 21.1185 65.914 20.7105C66.526 20.3025 66.832 19.75 66.832 19.053C66.832 18.56 66.6705 18.169 66.3475 17.88C66.0245 17.574 65.523 17.302 64.843 17.064C64.18 16.809 63.296 16.5455 62.191 16.2735C60.916 15.9675 59.845 15.602 58.978 15.177C58.128 14.735 57.482 14.1825 57.04 13.5195C56.615 12.8565 56.4025 12.015 56.4025 10.995C56.4025 10.009 56.666 9.1335 57.193 8.3685C57.737 7.6035 58.502 7 59.488 6.558C60.491 6.116 61.681 5.895 63.058 5.895C64.163 5.895 65.1405 6.048 65.9905 6.354C66.8405 6.643 67.546 7.034 68.107 7.527C68.668 8.003 69.093 8.5215 69.382 9.0825C69.688 9.6265 69.8495 10.162 69.8665 10.689C69.8665 10.825 69.8155 10.9525 69.7135 11.0715C69.6285 11.1735 69.501 11.2245 69.331 11.2245H66.9595C66.8235 11.2245 66.6875 11.1905 66.5515 11.1225C66.4155 11.0545 66.305 10.927 66.22 10.74C66.118 10.213 65.7865 9.7625 65.2255 9.3885C64.6645 9.0145 63.942 8.8275 63.058 8.8275C62.14 8.8275 61.4005 8.9975 60.8395 9.3375C60.2785 9.6775 59.998 10.2045 59.998 10.9185C59.998 11.3945 60.134 11.794 60.406 12.117C60.695 12.423 61.1455 12.695 61.7575 12.933C62.3865 13.171 63.211 13.426 64.231 13.698C65.676 14.021 66.8575 14.395 67.7755 14.82C68.6935 15.245 69.365 15.789 69.79 16.452C70.215 17.098 70.4275 17.9225 70.4275 18.9255C70.4275 20.0475 70.1215 21.008 69.5095 21.807C68.9145 22.589 68.073 23.1925 66.985 23.6175C65.897 24.0425 64.6305 24.255 63.1855 24.255ZM73.9618 24C73.7918 24 73.6473 23.9405 73.5283 23.8215C73.4093 23.7025 73.3498 23.558 73.3498 23.388V6.7875C73.3498 6.6005 73.4093 6.4475 73.5283 6.3285C73.6473 6.2095 73.7918 6.15 73.9618 6.15H80.1838C81.9008 6.15 83.3118 6.4135 84.4168 6.9405C85.5388 7.4675 86.3803 8.2495 86.9413 9.2865C87.5193 10.3235 87.8168 11.59 87.8338 13.086C87.8678 13.834 87.8848 14.497 87.8848 15.075C87.8848 15.653 87.8678 16.3075 87.8338 17.0385C87.7998 18.6195 87.5108 19.9285 86.9668 20.9655C86.4228 21.9855 85.5983 22.7505 84.4933 23.2605C83.4053 23.7535 82.0113 24 80.3113 24H73.9618ZM76.8943 21.0675H80.1838C81.1358 21.0675 81.9093 20.9315 82.5043 20.6595C83.0993 20.3875 83.5328 19.954 83.8048 19.359C84.0938 18.747 84.2468 17.948 84.2638 16.962C84.2808 16.452 84.2893 16.01 84.2893 15.636C84.3063 15.245 84.3063 14.8625 84.2893 14.4885C84.2893 14.0975 84.2808 13.6555 84.2638 13.1625C84.2298 11.7685 83.8813 10.74 83.2183 10.077C82.5553 9.414 81.5013 9.0825 80.0563 9.0825H76.8943V21.0675ZM91.8915 24C91.7215 24 91.577 23.9405 91.458 23.8215C91.339 23.7025 91.2795 23.558 91.2795 23.388V6.7875C91.2795 6.6005 91.339 6.4475 91.458 6.3285C91.577 6.2095 91.7215 6.15 91.8915 6.15H102.959C103.146 6.15 103.299 6.2095 103.418 6.3285C103.537 6.4475 103.596 6.6005 103.596 6.7875V8.5725C103.596 8.7595 103.537 8.9125 103.418 9.0315C103.299 9.1335 103.146 9.1845 102.959 9.1845H94.773V14.0295H102.449C102.636 14.0295 102.789 14.089 102.908 14.208C103.027 14.327 103.086 14.48 103.086 14.667V16.452C103.086 16.622 103.027 16.7665 102.908 16.8855C102.789 17.0045 102.636 17.064 102.449 17.064H94.773V23.388C94.773 23.558 94.7135 23.7025 94.5945 23.8215C94.4755 23.9405 94.3225 24 94.1355 24H91.8915Z" fill="url(#paint1_linear_1441_1517)"/>
<path d="M58.276 36C58.2027 36 58.144 35.978 58.1 35.934C58.056 35.89 58.034 35.8313 58.034 35.758V28.553C58.034 28.4723 58.056 28.41 58.1 28.366C58.144 28.322 58.2027 28.3 58.276 28.3H60.619C61.3963 28.3 62.005 28.4137 62.445 28.641C62.885 28.8683 63.1967 29.2057 63.38 29.653C63.5707 30.093 63.6697 30.632 63.677 31.27C63.6843 31.6 63.688 31.8933 63.688 32.15C63.688 32.3993 63.6843 32.689 63.677 33.019C63.6623 33.6937 63.5633 34.251 63.38 34.691C63.1967 35.131 62.8887 35.461 62.456 35.681C62.0233 35.8937 61.4293 36 60.674 36H58.276ZM58.727 35.34H60.619C61.2057 35.34 61.6677 35.263 62.005 35.109C62.3497 34.9477 62.5953 34.6947 62.742 34.35C62.896 33.998 62.9767 33.536 62.984 32.964C62.9913 32.744 62.995 32.5533 62.995 32.392C62.995 32.2233 62.995 32.0583 62.995 31.897C62.995 31.7357 62.9913 31.545 62.984 31.325C62.9693 30.5183 62.7823 29.9243 62.423 29.543C62.0637 29.1543 61.444 28.96 60.564 28.96H58.727V35.34ZM67.5133 36.11C66.9853 36.11 66.5417 36 66.1823 35.78C65.8303 35.56 65.559 35.2593 65.3683 34.878C65.185 34.4967 65.086 34.0713 65.0713 33.602C65.064 33.492 65.0603 33.338 65.0603 33.14C65.0603 32.942 65.064 32.788 65.0713 32.678C65.086 32.2013 65.185 31.776 65.3683 31.402C65.559 31.0207 65.8303 30.72 66.1823 30.5C66.5417 30.28 66.9853 30.17 67.5133 30.17C68.0413 30.17 68.4813 30.28 68.8333 30.5C69.1927 30.72 69.464 31.0207 69.6473 31.402C69.838 31.776 69.9407 32.2013 69.9553 32.678C69.9627 32.788 69.9663 32.942 69.9663 33.14C69.9663 33.338 69.9627 33.492 69.9553 33.602C69.9407 34.0713 69.838 34.4967 69.6473 34.878C69.464 35.2593 69.1927 35.56 68.8333 35.78C68.4813 36 68.0413 36.11 67.5133 36.11ZM67.5133 35.472C68.0267 35.472 68.4447 35.307 68.7673 34.977C69.09 34.647 69.2623 34.1703 69.2843 33.547C69.2917 33.437 69.2953 33.3013 69.2953 33.14C69.2953 32.9787 69.2917 32.843 69.2843 32.733C69.2623 32.1023 69.09 31.6257 68.7673 31.303C68.4447 30.973 68.0267 30.808 67.5133 30.808C67 30.808 66.582 30.973 66.2593 31.303C65.9367 31.6257 65.7643 32.1023 65.7423 32.733C65.735 32.843 65.7313 32.9787 65.7313 33.14C65.7313 33.3013 65.735 33.437 65.7423 33.547C65.7643 34.1703 65.9367 34.647 66.2593 34.977C66.582 35.307 67 35.472 67.5133 35.472ZM73.6361 36.11C73.1228 36.11 72.6865 36.011 72.3271 35.813C71.9678 35.6077 71.6928 35.3143 71.5021 34.933C71.3188 34.5517 71.2198 34.1007 71.2051 33.58C71.1978 33.47 71.1941 33.3233 71.1941 33.14C71.1941 32.9567 71.1978 32.81 71.2051 32.7C71.2198 32.172 71.3188 31.721 71.5021 31.347C71.6928 30.9657 71.9678 30.676 72.3271 30.478C72.6865 30.2727 73.1228 30.17 73.6361 30.17C74.0248 30.17 74.3585 30.225 74.6371 30.335C74.9231 30.4377 75.1578 30.577 75.3411 30.753C75.5245 30.9217 75.6638 31.1087 75.7591 31.314C75.8545 31.5193 75.9058 31.721 75.9131 31.919C75.9205 31.9923 75.8985 32.051 75.8471 32.095C75.7958 32.139 75.7371 32.161 75.6711 32.161H75.5171C75.4438 32.161 75.3888 32.1463 75.3521 32.117C75.3228 32.0803 75.2898 32.018 75.2531 31.93C75.0991 31.512 74.8865 31.2223 74.6151 31.061C74.3511 30.8923 74.0248 30.808 73.6361 30.808C73.1375 30.808 72.7231 30.962 72.3931 31.27C72.0705 31.5707 71.8981 32.0657 71.8761 32.755C71.8615 33.0117 71.8615 33.2683 71.8761 33.525C71.8981 34.2143 72.0705 34.713 72.3931 35.021C72.7231 35.3217 73.1375 35.472 73.6361 35.472C74.0248 35.472 74.3511 35.3913 74.6151 35.23C74.8865 35.0613 75.0991 34.768 75.2531 34.35C75.2898 34.262 75.3228 34.2033 75.3521 34.174C75.3888 34.1373 75.4438 34.119 75.5171 34.119H75.6711C75.7371 34.119 75.7958 34.141 75.8471 34.185C75.8985 34.229 75.9205 34.2877 75.9131 34.361C75.9058 34.5223 75.8728 34.6837 75.8141 34.845C75.7555 35.0063 75.6638 35.164 75.5391 35.318C75.4218 35.472 75.2751 35.6077 75.0991 35.725C74.9231 35.8423 74.7105 35.934 74.4611 36C74.2191 36.0733 73.9441 36.11 73.6361 36.11ZM79.1816 36.11C78.8003 36.11 78.4703 36.0587 78.1916 35.956C77.9203 35.8533 77.6966 35.7323 77.5206 35.593C77.3446 35.4463 77.2126 35.3033 77.1246 35.164C77.0439 35.0247 76.9999 34.9183 76.9926 34.845C76.9853 34.7643 77.0109 34.7057 77.0696 34.669C77.1283 34.625 77.1833 34.603 77.2346 34.603H77.3996C77.4436 34.603 77.4803 34.6103 77.5096 34.625C77.5463 34.6397 77.5903 34.68 77.6416 34.746C77.7369 34.8707 77.8469 34.9917 77.9716 35.109C78.0963 35.219 78.2539 35.307 78.4446 35.373C78.6426 35.439 78.8883 35.472 79.1816 35.472C79.6216 35.472 79.9846 35.3877 80.2706 35.219C80.5566 35.0503 80.6996 34.801 80.6996 34.471C80.6996 34.2657 80.6409 34.1007 80.5236 33.976C80.4136 33.8513 80.2229 33.7413 79.9516 33.646C79.6803 33.5507 79.3136 33.4517 78.8516 33.349C78.3896 33.239 78.0339 33.107 77.7846 32.953C77.5426 32.799 77.3776 32.623 77.2896 32.425C77.2016 32.2197 77.1576 31.9997 77.1576 31.765C77.1576 31.5083 77.2309 31.259 77.3776 31.017C77.5243 30.7677 77.7406 30.566 78.0266 30.412C78.3199 30.2507 78.6866 30.17 79.1266 30.17C79.4859 30.17 79.7903 30.2177 80.0396 30.313C80.2963 30.4083 80.5053 30.5257 80.6666 30.665C80.8279 30.797 80.9453 30.929 81.0186 31.061C81.0993 31.193 81.1433 31.2993 81.1506 31.38C81.1579 31.4533 81.1359 31.512 81.0846 31.556C81.0333 31.6 80.9746 31.622 80.9086 31.622H80.7436C80.6849 31.622 80.6373 31.611 80.6006 31.589C80.5639 31.5597 80.5309 31.523 80.5016 31.479C80.4283 31.3617 80.3403 31.2517 80.2376 31.149C80.1349 31.0463 79.9956 30.9657 79.8196 30.907C79.6509 30.841 79.4199 30.808 79.1266 30.808C78.6866 30.808 78.3603 30.8997 78.1476 31.083C77.9349 31.259 77.8286 31.4863 77.8286 31.765C77.8286 31.9263 77.8726 32.0693 77.9606 32.194C78.0486 32.3113 78.2136 32.4213 78.4556 32.524C78.6976 32.6193 79.0496 32.722 79.5116 32.832C79.9809 32.9347 80.3513 33.063 80.6226 33.217C80.8939 33.3637 81.0846 33.5397 81.1946 33.745C81.3119 33.9503 81.3706 34.1923 81.3706 34.471C81.3706 34.7643 81.2863 35.0357 81.1176 35.285C80.9563 35.5343 80.7106 35.736 80.3806 35.89C80.0579 36.0367 79.6583 36.11 79.1816 36.11Z" fill="url(#paint2_linear_1441_1517)"/>
<defs>
<linearGradient id="paint0_linear_1441_1517" x1="14" y1="15.5" x2="28" y2="7.5" gradientUnits="userSpaceOnUse">
<stop stop-color="#0C1D37"/>
<stop offset="1" stop-color="#0C1D37" stop-opacity="0.53"/>
</linearGradient>
<linearGradient id="paint1_linear_1441_1517" x1="133.5" y1="-12" x2="34" y2="35.5" gradientUnits="userSpaceOnUse">
<stop offset="0.172476" stop-color="#24334A" stop-opacity="0.79"/>
<stop offset="1" stop-color="#0C1D37"/>
</linearGradient>
<linearGradient id="paint2_linear_1441_1517" x1="171.047" y1="20.8" x2="121.211" y2="100.564" gradientUnits="userSpaceOnUse">
<stop offset="0.172476" stop-color="#24334A" stop-opacity="0.65"/>
<stop offset="1" stop-color="#0C1D37"/>
</linearGradient>
</defs>
</svg>
